<svg xmlns="http://www.w3.org/2000/svg" width="29" height="30" viewBox="0 0 29 30" fill="none">
  <g clip-path="url(#clip0_67_129)">
    <path d="M27.9588 14.0729L17.0881 3.20225C16.5768 2.69089 15.7451 2.69089 15.2337 3.20225C14.7224 3.71361 14.7224 4.54528 15.2337 5.05664L23.8623 13.6852L1.97203 13.688C1.24713 13.688 0.659909 14.2752 0.65991 15.0001C0.65991 15.725 1.24713 16.3122 1.97203 16.3122L23.8623 16.3094L15.2337 24.9379C14.7224 25.4493 14.7224 26.281 15.2337 26.7923C15.7451 27.3037 16.5768 27.3037 17.0881 26.7923L27.956 15.9245C28.4701 15.4159 28.4701 14.5843 27.9588 14.0729Z" fill="currentColor"></path>
  </g>
  <defs>
    <clipPath id="clip0_67_129">
      <rect width="20.3443" height="20.3443" fill="white" transform="translate(14.5 0.614258) rotate(45)"></rect>
    </clipPath>
  </defs>
</svg>